<?xml version="1.0" encoding="UTF-8" standalone="no"?>
<!DOCTYPE svg PUBLIC "-//W3C//DTD SVG 1.1//EN" "http://www.w3.org/Graphics/SVG/1.1/DTD/svg11.dtd">
<svg width="100%" height="100%" viewBox="0 0 500 500" version="1.1" xmlns="http://www.w3.org/2000/svg" xmlns:xlink="http://www.w3.org/1999/xlink" xml:space="preserve" xmlns:serif="http://www.serif.com/" style="fill-rule:evenodd;clip-rule:evenodd;stroke-linejoin:round;stroke-miterlimit:2;">
    <g id="Spaces">
        <rect x="5" y="5" width="146.667" height="146.667" style="fill:rgb(51,51,51);"/>
        <g transform="matrix(1,0,0,1,0,171.667)">
            <rect x="5" y="5" width="146.667" height="146.667" style="fill:rgb(51,51,51);"/>
        </g>
        <g transform="matrix(1,0,0,1,0,343.333)">
            <rect x="5" y="5" width="146.667" height="146.667" style="fill:rgb(51,51,51);"/>
        </g>
        <g transform="matrix(1,0,0,1,171.667,0)">
            <rect x="5" y="5" width="146.667" height="146.667" style="fill:rgb(51,51,51);"/>
        </g>
        <g transform="matrix(1,0,0,1,171.667,171.667)">
            <rect x="5" y="5" width="146.667" height="146.667" style="fill:rgb(51,51,51);"/>
        </g>
        <g transform="matrix(1,0,0,1,171.667,343.333)">
            <rect x="5" y="5" width="146.667" height="146.667" style="fill:rgb(51,51,51);"/>
        </g>
        <g transform="matrix(1,0,0,1,343.333,0)">
            <rect x="5" y="5" width="146.667" height="146.667" style="fill:rgb(51,51,51);"/>
        </g>
        <g transform="matrix(1,0,0,1,343.333,171.667)">
            <rect x="5" y="5" width="146.667" height="146.667" style="fill:rgb(51,51,51);"/>
        </g>
        <g transform="matrix(1,0,0,1,343.333,343.333)">
            <rect x="5" y="5" width="146.667" height="146.667" style="fill:rgb(51,51,51);"/>
        </g>
    </g>
</svg>
